#!OML:ASF I:\Actors\actors\Patient Classification 2\Patient 1\Session 1\actor1.ASF
:FULLY-SPECIFIED
:DEGREES
207
root -0.50079 18.6853 5.12558 17.3458 5.36242 -2.48812
lowerback 31.8009 -1.7137 3.82356
upperback -0.579651 -0.424742 2.00356
thorax -17.4272 -0.403852 0.321481
lowerneck -10.5484 -10.9948 -9.62151
upperneck -19.5267 -12.5629 14.9884
head -2.4634 -6.27426 5.92117
rclavicle -6.4605e-015 -1.47101e-014
rhumerus -28.4714 34.3329 -89.949
rradius 141.687
rwrist 21.3858
rhand -7.2438 -44.0904
rfingers 7.12502
rthumb 18.6363 -73.2177
lclavicle -6.4605e-015 -1.47101e-014
lhumerus -33.9024 -36.038 104.425
lradius 136.419
lwrist -10.5211
lhand -26.1685 -48.6114
lfingers 7.12502
lthumb 0.382969 -18.632
rfemur -19.0564 -4.2128 16.6928
rtibia 13.9745
rfoot -18.1514 -10.2405
rtoes -13.7139
lfemur -33.7821 -0.224439 -10.9553
ltibia 33.9637
lfoot -16.8099 5.31991
ltoes -57.3425
208
root -0.510983 18.6915 5.13369 17.2777 4.98552 -2.45003
lowerback 31.6968 -1.89237 3.69585
upperback -0.649691 -0.704879 2.02621
thorax -17.4705 -0.511265 0.537961
lowerneck -10.2126 -10.8891 -9.41504
upperneck -19.3954 -12.4755 15.0106
head -2.49406 -6.25801 5.91269
rclavicle -1.32192e-014 3.97569e-015
rhumerus -28.8759 34.3389 -90.3275
rradius 141.925
rwrist 21.6554
rhand -7.63063 -44.3989
rfingers 7.12502
rthumb 18.2642 -73.5614
lclavicle -1.32192e-014 3.97569e-015
lhumerus -34.1502 -35.8988 104.383
lradius 136.505
lwrist -10.8426
lhand -26.1178 -48.4747
lfingers 7.12502
lthumb 0.431983 -18.4954
rfemur -18.8742 -4.17788 16.6698
rtibia 13.7129
rfoot -17.921 -10.1506
rtoes -13.9277
lfemur -33.6566 0.070244 -11.0162
ltibia 34.0614
lfoot -16.798 5.18893
ltoes -57.3719
209
root -0.520898 18.6975 5.14156 17.2312 4.66468 -2.37354
lowerback 31.6531 -2.04753 3.59286
upperback -0.70348 -0.94108 2.05517
thorax -17.5194 -0.601495 0.729736
lowerneck -10.2048 -10.8561 -9.27665
upperneck -19.1244 -12.4768 14.8971
head -2.43297 -6.2629 5.84414
rclavicle 1.49089e-015 1.51076e-014
rhumerus -29.0137 34.2201 -90.4434
rradius 141.969
rwrist 21.8227
rhand -8.19749 -44.8307
rfingers 7.12502
rthumb 17.7188 -74.0434
lclavicle 1.49089e-015 1.51076e-014
lhumerus -34.4294 -35.8314 104.553
lradius 136.568
lwrist -10.9955
lhand -25.8852 -48.5819
lfingers 7.12502
lthumb 0.656637 -18.6032
rfemur -18.7742 -4.08618 16.6159
rtibia 13.5884
rfoot -17.8673 -10.217
rtoes -14.3378
lfemur -33.537 0.193948 -11.0653
ltibia 34.1117
lfoot -16.836 5.09003
ltoes -57.2994
210
root -0.529754 18.7018 5.14805 17.2368 4.43613 -2.25868
lowerback 31.729 -2.19677 3.53412
upperback -0.822203 -1.14505 2.079
thorax -17.7021 -0.682417 0.882792
lowerneck -10.5184 -10.7659 -9.16698
upperneck -18.6414 -12.4006 14.5983
head -2.28407 -6.20527 5.70294
rclavicle -1.09332e-015 -9.0447e-015
rhumerus -29.1793 33.9092 -90.5739
rradius 142.026
rwrist 21.8137
rhand -9.01064 -45.245
rfingers 7.12502
rthumb 16.9362 -74.5266
lclavicle -1.09332e-015 -9.0447e-015
lhumerus -34.7966 -35.7681 104.857
lradius 136.633
lwrist -10.8106
lhand -25.6805 -48.8267
lfingers 7.12502
lthumb 0.854363 -18.8487
rfemur -18.8333 -4.01355 16.5276
rtibia 13.6917
rfoot -18.0371 -10.2888
rtoes -14.2722
lfemur -33.4572 0.188835 -11.1278
ltibia 34.0889
lfoot -16.8581 5.01256
ltoes -57.2759
211
root -0.536411 18.7051 5.15226 17.3157 4.27744 -2.10463
lowerback 31.4565 -2.31933 3.61065
upperback -0.721173 -1.30719 2.01232
thorax -17.4562 -0.760347 0.827711
lowerneck -10.9066 -10.4716 -9.02036
upperneck -18.4808 -12.0284 14.205
head -2.26243 -5.99999 5.56004
rclavicle 8.15017e-015 -1.0138e-014
rhumerus -29.5174 33.2692 -91.0451
rradius 142.374
rwrist 22.046
rhand -10.0594 -45.6684
rfingers 7.12502
rthumb 15.9264 -75.0336
lclavicle 8.15017e-015 -1.0138e-014
lhumerus -34.5751 -35.9453 104.79
lradius 136.583
lwrist -10.4909
lhand -25.6234 -48.7378
lfingers 7.12502
lthumb 0.909454 -18.76
rfemur -19.0874 -4.02135 16.402
rtibia 14.0108
rfoot -18.1609 -10.3505
rtoes -14.6887
lfemur -33.44 0.139786 -11.2332
ltibia 33.9954
lfoot -16.8559 4.91494
ltoes -57.2122
212
root -0.539242 18.7045 5.15404 17.4296 4.14479 -1.95278
lowerback 31.2475 -2.40446 3.72938
upperback -0.745549 -1.40461 1.90805
thorax -17.3945 -0.817663 0.684666
lowerneck -11.1873 -9.8547 -8.74649
upperneck -18.2455 -11.2731 13.4179
head -2.31181 -5.5975 5.30415
rclavicle 2.95195e-014 -3.97569e-016
rhumerus -29.4931 33.6041 -90.5686
rradius 142.382
rwrist 22.0812
rhand -11.8571 -47.0644
rfingers 7.12502
rthumb 14.1947 -76.5594
lclavicle 2.95195e-014 -3.97569e-016
lhumerus -34.5706 -36.1587 104.92
lradius 136.435
lwrist -10.206
lhand -25.6088 -48.7268
lfingers 7.12502
lthumb 0.923605 -18.7491
rfemur -19.478 -4.14043 16.2853
rtibia 14.4821
rfoot -18.1444 -10.3162
rtoes -15.2375
lfemur -33.448 0.0624493 -11.3564
ltibia 33.8548
lfoot -16.9084 4.91011
ltoes -57.0805
213
root -0.538416 18.7003 5.15325 17.521 4.00694 -1.84589
lowerback 31.1479 -2.51974 3.79465
upperback -0.754472 -1.56808 1.73384
thorax -17.3675 -0.901684 0.524187
lowerneck -12.0227 -8.7985 -7.85963
upperneck -17.6478 -10.0044 12.0909
head -2.28207 -4.93923 4.77472
rclavicle -4.9895e-014 2.93207e-014
rhumerus -29.1999 33.561 -90.4627
rradius 142.251
rwrist 22.0067
rhand -13.2222 -48.0795
rfingers 7.12502
rthumb 12.879 -77.6621
lclavicle -4.9895e-014 2.93207e-014
lhumerus -34.352 -36.2709 104.682
lradius 136.298
lwrist -9.8851
lhand -25.5164 -48.8459
lfingers 7.12502
lthumb 1.01283 -18.8686
rfemur -19.8977 -4.25544 16.1986
rtibia 15.0435
rfoot -18.229 -10.1128
rtoes -14.7757
lfemur -33.4283 0.0112995 -11.4576
ltibia 33.6998
lfoot -16.9924 4.9467
ltoes -56.8654
214
root -0.534957 18.6963 5.14896 17.5705 3.85052 -1.78645
lowerback 31.1553 -2.53094 3.87115
upperback -0.771567 -1.58492 1.56274
thorax -17.3981 -0.924467 0.300857
lowerneck -12.8684 -7.44315 -6.79976
upperneck -17.0419 -8.38817 10.4172
head -2.27585 -4.11145 4.12387
rclavicle 2.45002e-014 -1.65488e-014
rhumerus -29.0507 33.2904 -90.4236
rradius 142.133
rwrist 21.7387
rhand -14.2805 -48.9943
rfingers 7.12502
rthumb 11.8587 -78.6385
lclavicle 2.45002e-014 -1.65488e-014
lhumerus -34.1783 -36.5369 104.615
lradius 136.225
lwrist -9.73601
lhand -25.345 -48.5811
lfingers 7.12502
lthumb 1.1784 -18.6047
rfemur -20.2739 -4.28827 16.139
rtibia 15.6007
rfoot -18.3552 -9.94134
rtoes -14.5032
lfemur -33.3699 0.0579374 -11.5394
ltibia 33.5618
lfoot -17.0895 4.89582
ltoes -56.7077
215
root -0.529397 18.6921 5.14122 17.5798 3.62985 -1.75042
lowerback 31.2422 -2.49554 3.92033
upperback -0.749619 -1.56401 1.30177
thorax -17.4192 -0.933018 -0.0225386
lowerneck -13.583 -5.79738 -5.28624
upperneck -16.4083 -6.51697 8.21194
head -2.59168 -3.16336 3.51926
rclavicle 6.26172e-015 -1.98536e-014
rhumerus -29.0726 33.1032 -90.5951
rradius 142.083
rwrist 21.6923
rhand -14.6669 -49.8986
rfingers 7.12502
rthumb 11.486 -79.5639
lclavicle 6.26172e-015 -1.98536e-014
lhumerus -34.1639 -36.823 104.539
lradius 136.236
lwrist -9.77217
lhand -25.1548 -48.3541
lfingers 7.12502
lthumb 1.36204 -18.3788
rfemur -20.6 -4.20113 16.0663
rtibia 16.0887
rfoot -18.3554 -9.93505
rtoes -15.2224
lfemur -33.2833 0.243048 -11.657
ltibia 33.4575
lfoot -17.1764 4.83452
ltoes -56.7724
216
root -0.523777 18.6875 5.13127 17.5353 3.37478 -1.70444
lowerback 32.486 -2.4806 3.89253
upperback -1.45126 -1.53112 0.971286
thorax -18.8745 -0.947854 -0.341636
lowerneck -13.9184 -4.04498 -3.82134
upperneck -15.4857 -4.48054 6.33905
head -2.43352 -2.16929 2.63982
rclavicle -1.30701e-014 -6.21202e-016
rhumerus -30.766 33.0672 -91.7873
rradius 142.17
rwrist 21.9755
rhand -14.5882 -50.0754
rfingers 7.12502
rthumb 11.5619 -79.7365
lclavicle -1.30701e-014 -6.21202e-016
lhumerus -35.837 -36.7503 105.329
lradius 136.412
lwrist -9.93489
lhand -25.0563 -48.5918
lfingers 7.12502
lthumb 1.45716 -18.617
rfemur -20.8413 -3.89991 15.9144
rtibia 16.5071
rfoot -18.4553 -9.99858
rtoes -15.2579
lfemur -33.1631 0.494543 -11.8227
ltibia 33.3814
lfoot -17.197 4.8427
ltoes -56.7814
